<svg xmlns="http://www.w3.org/2000/svg" viewBox="0 0 249.24 249.24"><defs><style>.cls-1{fill:none;stroke:#f17a18;stroke-miterlimit:10;stroke-width:4px;}.cls-2{fill:#f17a18;}</style></defs><g id="Layer_6" data-name="Layer 6"><circle cx="124.62" cy="124.62" r="124.62"/></g><g id="Layer_2" data-name="Layer 2"><circle class="cls-1" cx="76.27" cy="29.58" r="5.67"/><circle class="cls-1" cx="44.55" cy="61.17" r="5.67"/><circle class="cls-1" cx="13.52" cy="102.23" r="5.67"/><circle class="cls-1" cx="13.54" cy="147.05" r="5.67"/><circle class="cls-1" cx="44.64" cy="188.06" r="5.67"/><circle class="cls-1" cx="76.36" cy="219.65" r="5.67"/><circle class="cls-1" cx="172.96" cy="29.59" r="5.67"/><circle class="cls-1" cx="204.68" cy="61.18" r="5.67"/><circle class="cls-1" cx="235.72" cy="102.23" r="5.67"/><circle class="cls-1" cx="235.7" cy="147.05" r="5.67"/><circle class="cls-1" cx="204.59" cy="188.07" r="5.67"/><circle class="cls-1" cx="172.88" cy="219.65" r="5.67"/></g><g id="Layer_3" data-name="Layer 3"><rect class="cls-2" x="73.97" y="36.22" width="4.5" height="24.74"/><rect class="cls-2" x="64.99" y="52.22" width="4.5" height="24.74" transform="translate(-0.74 128.45) rotate(-90)"/><rect class="cls-2" x="83.93" y="58.74" width="4.5" height="24.74" transform="translate(-28.42 78.38) rotate(-45)"/><rect class="cls-2" x="73.93" y="188.59" width="4.5" height="24.74"/><rect class="cls-2" x="64.95" y="179.35" width="4.5" height="24.74" transform="translate(255.54 121.15) rotate(90)"/><rect class="cls-2" x="83.89" y="172.84" width="4.5" height="24.74" transform="translate(152.81 -10.04) rotate(45)"/><rect class="cls-2" x="28.38" y="107.15" width="4.5" height="24.74" transform="translate(-78.92 53.28) rotate(-45)"/><rect class="cls-2" x="27.75" y="124.9" width="4.5" height="24.74" transform="translate(102.47 15.61) rotate(45)"/><rect class="cls-2" x="60.52" y="103.09" width="4.5" height="50.03" transform="translate(-68.72 187.49) rotate(-90)"/><rect class="cls-2" x="174.55" y="39.65" width="4.5" height="24.74" transform="translate(350.22 100.67) rotate(-180)"/><rect class="cls-2" x="186.92" y="52.27" width="4.5" height="24.74" transform="translate(121.15 250.43) rotate(-90)"/><rect class="cls-2" x="163.56" y="56.95" width="4.5" height="37.25" transform="translate(226.23 242.88) rotate(-135)"/><rect class="cls-2" x="174.59" y="192.02" width="4.5" height="24.74" transform="translate(350.3 405.4) rotate(-180)"/><rect class="cls-2" x="186.96" y="179.4" width="4.5" height="24.74" transform="translate(377.6 -0.82) rotate(90)"/><rect class="cls-2" x="163.77" y="162.62" width="4.5" height="36.77" transform="translate(408.01 188.22) rotate(135)"/><rect class="cls-2" x="223.53" y="107.19" width="4.5" height="24.74" transform="translate(297.49 360.37) rotate(-135)"/><rect class="cls-2" x="224.16" y="124.94" width="4.5" height="24.74" transform="translate(480.22 70.93) rotate(135)"/><rect class="cls-2" x="191.39" y="103.13" width="4.5" height="50.03" transform="translate(62.11 318.41) rotate(-90)"/></g><g id="Layer_4" data-name="Layer 4"><path class="cls-2" d="M186.71,142.18a20,20,0,0,0,0-28.24L144.05,71.38c-7.79-7.77-14.17-5.13-14.17,5.87V178.86c0,11,6.38,13.65,14.17,5.88Z" transform="translate(-3.38 -3.38)"/><path class="cls-2" d="M193.79,135.12a10,10,0,0,0,0-14.12L158.4,85.7c-3.89-3.89-7.08-2.56-7.08,2.94v78.84c0,5.5,3.19,6.82,7.08,2.94Z" transform="translate(-3.38 -3.38)"/><path d="M149.9,119.28a13,13,0,0,1,0,18.35L118.27,169.1c-5.06,5.05-9.21,3.32-9.21-3.83V91.64c0-7.15,4.15-8.88,9.21-3.83Z" transform="translate(-3.38 -3.38)"/><path class="cls-2" d="M139.46,142.44a20,20,0,0,0,0-28.25L96.79,71.63C89,63.86,82.63,66.51,82.63,77.51V179.12c0,11,6.37,13.64,14.16,5.87Z" transform="translate(-3.38 -3.38)"/><path class="cls-2" d="M146.54,135.37a10,10,0,0,0,0-14.12L111.14,86c-3.89-3.88-7.08-2.56-7.08,2.94v78.85c0,5.5,3.19,6.82,7.08,2.93Z" transform="translate(-3.38 -3.38)"/></g></svg>