<svg xmlns="http://www.w3.org/2000/svg" viewBox="0 0 256 256"><defs><style>.cls-1{fill:none;stroke:#f17a18;stroke-miterlimit:10;stroke-width:4px;}.cls-2{fill:#f17a18;}</style></defs><g id="Layer_5" data-name="Layer 5"><rect width="256" height="256"/></g><g id="Layer_2" data-name="Layer 2"><circle class="cls-1" cx="82.51" cy="37.9" r="5.04"/><circle class="cls-1" cx="54.31" cy="65.99" r="5.04"/><circle class="cls-1" cx="26.71" cy="102.5" r="5.04"/><circle class="cls-1" cx="26.73" cy="142.36" r="5.04"/><circle class="cls-1" cx="54.39" cy="178.83" r="5.04"/><circle class="cls-1" cx="82.59" cy="206.91" r="5.04"/><circle class="cls-1" cx="168.49" cy="37.91" r="5.04"/><circle class="cls-1" cx="196.7" cy="66" r="5.04"/><circle class="cls-1" cx="224.3" cy="102.5" r="5.04"/><circle class="cls-1" cx="224.28" cy="142.36" r="5.04"/><circle class="cls-1" cx="196.62" cy="178.83" r="5.04"/><circle class="cls-1" cx="168.42" cy="206.92" r="5.04"/></g><g id="Layer_3" data-name="Layer 3"><rect class="cls-2" x="80.47" y="43.81" width="4" height="22"/><rect class="cls-2" x="69.47" y="55.03" width="4" height="22" transform="translate(5.44 137.5) rotate(-90)"/><rect class="cls-2" x="86.31" y="60.82" width="4" height="22" transform="translate(-24.92 83.48) rotate(-45)"/><rect class="cls-2" x="80.43" y="179.29" width="4" height="22"/><rect class="cls-2" x="69.43" y="168.07" width="4" height="22" transform="translate(250.51 107.64) rotate(90)"/><rect class="cls-2" x="86.28" y="162.28" width="4" height="22" transform="translate(148.39 -11.67) rotate(45)"/><rect class="cls-2" x="36.92" y="103.87" width="4" height="22" transform="translate(-69.82 61.16) rotate(-45)"/><rect class="cls-2" x="36.36" y="119.65" width="4" height="22" transform="translate(103.62 11.14) rotate(45)"/><rect class="cls-2" x="65.5" y="100.26" width="4" height="44.49" transform="translate(-55 190) rotate(-90)"/><rect class="cls-2" x="166.9" y="43.85" width="4" height="22" transform="translate(337.79 109.7) rotate(-180)"/><rect class="cls-2" x="177.9" y="55.07" width="4" height="22" transform="translate(113.83 245.97) rotate(-90)"/><rect class="cls-2" x="157.12" y="59.23" width="4" height="33.12" transform="translate(218.04 241.91) rotate(-135)"/><rect class="cls-2" x="166.93" y="179.34" width="4" height="22" transform="translate(337.86 380.68) rotate(-180)"/><rect class="cls-2" x="177.93" y="168.12" width="4" height="22" transform="translate(359.05 -0.81) rotate(90)"/><rect class="cls-2" x="157.31" y="153.19" width="4" height="32.7" transform="translate(391.84 176.78) rotate(135)"/><rect class="cls-2" x="210.45" y="103.91" width="4" height="22" transform="translate(281.41 346.38) rotate(-135)"/><rect class="cls-2" x="211.01" y="119.69" width="4" height="22" transform="translate(456.04 72.49) rotate(135)"/><rect class="cls-2" x="181.87" y="100.3" width="4" height="44.49" transform="translate(61.33 306.41) rotate(-90)"/></g><g id="Layer_4" data-name="Layer 4"><path class="cls-2" d="M173.32,136.59a20,20,0,0,0,0-28.25L141.91,77c-7.79-7.77-14.16-5.13-14.16,5.87V162c0,11,6.37,13.65,14.16,5.88Z"/><path class="cls-2" d="M180.4,129.53a10,10,0,0,0,0-14.12L152.86,87.94c-3.89-3.88-7.08-2.56-7.08,2.94v63.17c0,5.5,3.19,6.83,7.08,2.94Z"/><path d="M143.12,113.63a13,13,0,0,1,0,18.34l-23.68,23.58c-5.07,5-9.22,3.32-9.22-3.83V93.88c0-7.15,4.15-8.87,9.22-3.83Z"/><path class="cls-2" d="M133.55,136.81a20,20,0,0,0,0-28.25L102.14,77.23C94.35,69.46,88,72.11,88,83.11v79.15c0,11,6.37,13.64,14.16,5.87Z"/><path class="cls-2" d="M140.63,129.74a10,10,0,0,0,0-14.12L113.1,88.16C109.21,84.27,106,85.6,106,91.1v63.17c0,5.5,3.19,6.82,7.08,2.94Z"/></g></svg>